<svg width="209" height="77" viewBox="0 0 209 77" fill="none" xmlns="http://www.w3.org/2000/svg">
<rect y="0.949219" width="208.83" height="75.9999" rx="11.4717" fill="#090909"/>
<path d="M47.8663 39.9914C47.9075 36.7805 49.6252 33.7422 52.3502 32.0603C50.6311 29.5956 47.7518 28.0329 44.7561 27.9388C41.5609 27.6021 38.4634 29.8582 36.8352 29.8582C35.1755 29.8582 32.6686 27.9722 29.9692 28.028C26.4505 28.1421 23.1703 30.1504 21.4584 33.2387C17.7785 39.6347 20.5234 49.0347 24.0484 54.2047C25.812 56.7364 27.8732 59.5643 30.5703 59.464C33.2095 59.3541 34.1952 57.7745 37.3809 57.7745C40.5371 57.7745 41.4619 59.464 44.2136 59.4002C47.0456 59.3541 48.8299 56.8573 50.5317 54.3017C51.7988 52.4979 52.7739 50.5042 53.4208 48.3946C50.0927 46.9814 47.8702 43.6191 47.8663 39.9914Z" fill="white"/>
<path d="M42.6687 24.5387C44.2128 22.6778 44.9735 20.286 44.7893 17.8711C42.4302 18.1198 40.2511 19.2517 38.6861 21.0412C37.1558 22.7896 36.3594 25.1394 36.5099 27.462C38.8699 27.4864 41.1899 26.3852 42.6687 24.5387Z" fill="white"/>
<path d="M142.001 29.7594V33.6504H139.571V36.2021H142.001V44.8723C142.001 47.8328 143.335 49.017 146.691 49.017C147.281 49.017 147.843 48.9465 148.334 48.862V46.3384C147.913 46.3807 147.646 46.4089 147.183 46.4089C145.68 46.4089 145.02 45.704 145.02 44.0969V36.2021H148.334V33.6504H145.02V29.7594H142.001Z" fill="white"/>
<path d="M156.884 49.2285C161.35 49.2285 164.088 46.2257 164.088 41.2491C164.088 36.3008 161.336 33.2839 156.884 33.2839C152.419 33.2839 149.666 36.3008 149.666 41.2491C149.666 46.2257 152.405 49.2285 156.884 49.2285ZM156.884 46.5358C154.258 46.5358 152.784 44.6044 152.784 41.2491C152.784 37.922 154.258 35.9765 156.884 35.9765C159.496 35.9765 160.985 37.922 160.985 41.2491C160.985 44.5903 159.496 46.5358 156.884 46.5358Z" fill="white"/>
<path d="M166.431 48.9324H169.45V39.8675C169.45 37.7106 171.065 36.2585 173.354 36.2585C173.888 36.2585 174.787 36.3572 175.04 36.4418V33.453C174.717 33.3684 174.141 33.3262 173.691 33.3262C171.697 33.3262 169.998 34.4258 169.563 35.9343H169.338V33.5799H166.431V48.9324Z" fill="white"/>
<path d="M182.536 35.8638C184.769 35.8638 186.23 37.4286 186.3 39.8394H178.576C178.745 37.4427 180.304 35.8638 182.536 35.8638ZM186.286 44.7877C185.724 45.986 184.474 46.6486 182.649 46.6486C180.233 46.6486 178.675 44.9428 178.576 42.2501V42.0809H189.375V41.0236C189.375 36.2021 186.805 33.2839 182.55 33.2839C178.239 33.2839 175.501 36.3995 175.501 41.3055C175.501 46.2116 178.183 49.2285 182.564 49.2285C186.061 49.2285 188.505 47.5368 189.193 44.7877H186.286Z" fill="white"/>
<path d="M122.201 43.263C122.434 47.0329 125.563 49.4439 130.221 49.4439C135.199 49.4439 138.314 46.916 138.314 42.8831C138.314 39.7123 136.538 37.9588 132.23 36.9506L129.915 36.3808C127.179 35.7378 126.073 34.8757 126.073 33.3707C126.073 31.4711 127.79 30.2291 130.367 30.2291C132.812 30.2291 134.5 31.4419 134.806 33.3853H137.979C137.79 29.8346 134.675 27.3359 130.41 27.3359C125.825 27.3359 122.769 29.8346 122.769 33.5899C122.769 36.6876 124.501 38.5287 128.3 39.42L131.007 40.0776C133.787 40.7351 135.01 41.6995 135.01 43.3068C135.01 45.1772 133.088 46.5361 130.468 46.5361C127.659 46.5361 125.709 45.2648 125.432 43.263H122.201Z" fill="white"/>
<path d="M90.9248 33.3262C88.8464 33.3262 87.0489 34.3694 86.1221 36.1175H85.8974V33.5799H82.9905V54.0359H86.0097V46.6063H86.2485C87.0489 48.2276 88.7762 49.1862 90.9529 49.1862C94.8147 49.1862 97.2722 46.127 97.2722 41.2491C97.2722 36.3713 94.8147 33.3262 90.9248 33.3262ZM90.0682 46.4653C87.5404 46.4653 85.9536 44.4634 85.9536 41.2632C85.9536 38.0489 87.5404 36.047 90.0822 36.047C92.638 36.047 94.1687 38.0066 94.1687 41.2491C94.1687 44.5057 92.638 46.4653 90.0682 46.4653Z" fill="white"/>
<path d="M107.837 33.3262C105.759 33.3262 103.961 34.3694 103.034 36.1175H102.81V33.5799H99.9028V54.0359H102.922V46.6063H103.161C103.961 48.2276 105.688 49.1862 107.865 49.1862C111.727 49.1862 114.185 46.127 114.185 41.2491C114.185 36.3713 111.727 33.3262 107.837 33.3262ZM106.98 46.4653C104.453 46.4653 102.866 44.4634 102.866 41.2632C102.866 38.0489 104.453 36.047 106.994 36.047C109.55 36.047 111.081 38.0066 111.081 41.2491C111.081 44.5057 109.55 46.4653 106.98 46.4653Z" fill="white"/>
<path d="M77.5734 48.9324H81.0376L73.4543 27.8474H69.9465L62.3633 48.9324H65.711L67.6468 43.3361H75.6522L77.5734 48.9324ZM71.533 31.6757H71.7805L74.8225 40.589H68.4765L71.533 31.6757Z" fill="white"/>
</svg>
