<svg width="206" height="77" viewBox="0 0 206 77" fill="none" xmlns="http://www.w3.org/2000/svg">
<rect x="0.830078" y="0.949219" width="204.259" height="75.9999" rx="11.4717" fill="#090909"/>
<g filter="url(#filter0_ii_2020_17021)">
<path d="M21.2147 20.193C20.7741 20.6612 20.5137 21.3877 20.5137 22.3286V55.9448C20.5137 56.8872 20.7741 57.6123 21.2147 58.0804L21.3267 58.1899L40.0848 39.3586V39.1367V38.9148L21.3267 20.082L21.2147 20.193Z" fill="url(#paint0_linear_2020_17021)"/>
<path d="M46.3357 45.6373L40.084 39.3581V39.1362V38.9143L46.3372 32.6367L46.478 32.7173L53.8864 36.9429C56.0016 38.1498 56.0016 40.1242 53.8864 41.3326L46.478 45.5582L46.3357 45.6373Z" fill="url(#paint1_linear_2020_17021)"/>
<g filter="url(#filter1_i_2020_17021)">
<path d="M46.4789 45.5572L40.0834 39.1367L21.2148 58.0804C21.9113 58.8222 23.0635 58.9134 24.3611 58.1747L46.4789 45.5572Z" fill="url(#paint2_linear_2020_17021)"/>
</g>
<path d="M46.4789 32.7167L24.3611 20.1007C23.0635 19.3604 21.9113 19.4532 21.2148 20.1949L40.0849 39.1386L46.4789 32.7167Z" fill="url(#paint3_linear_2020_17021)"/>
</g>
<path d="M103.049 33.7702C99.6859 33.7702 96.9446 36.3272 96.9446 39.849C96.9446 43.3493 99.6859 45.9277 103.049 45.9277C106.414 45.9277 109.155 43.3493 109.155 39.849C109.154 36.3272 106.413 33.7702 103.049 33.7702ZM103.049 43.5351C101.206 43.5351 99.6173 42.0157 99.6173 39.8504C99.6173 37.6622 101.207 36.1657 103.049 36.1657C104.893 36.1657 106.481 37.6622 106.481 39.8504C106.481 42.0143 104.893 43.5351 103.049 43.5351ZM89.7302 33.7702C86.3668 33.7702 83.6255 36.3272 83.6255 39.849C83.6255 43.3493 86.3668 45.9277 89.7302 45.9277C93.095 45.9277 95.8363 43.3493 95.8363 39.849C95.8363 36.3272 93.095 33.7702 89.7302 33.7702ZM89.7302 43.5351C87.8869 43.5351 86.2982 42.0157 86.2982 39.8504C86.2982 37.6622 87.8883 36.1657 89.7302 36.1657C91.5735 36.1657 93.1622 37.6622 93.1622 39.8504C93.1636 42.0143 91.5735 43.5351 89.7302 43.5351ZM73.8886 35.6369V38.2153H80.0634C79.8789 39.666 79.3955 40.7251 78.6577 41.4612C77.7596 42.3588 76.3539 43.3493 73.8886 43.3493C70.0876 43.3493 67.1161 40.2863 67.1161 36.4873C67.1161 32.6883 70.0876 29.6253 73.8886 29.6253C75.9392 29.6253 77.4364 30.4314 78.5418 31.4676L80.3622 29.6482C78.8178 28.1746 76.7686 27.0469 73.8886 27.0469C68.6819 27.0469 64.3047 31.2833 64.3047 36.4873C64.3047 41.6913 68.6819 45.9277 73.8886 45.9277C76.6985 45.9277 78.8193 45.0058 80.4766 43.2792C82.1812 41.5755 82.7117 39.18 82.7117 37.2462C82.7117 36.6488 82.666 36.0957 82.573 35.6354L73.8886 35.6369ZM138.679 37.6393C138.173 36.2815 136.629 33.7702 133.473 33.7702C130.34 33.7702 127.735 36.2343 127.735 39.849C127.735 43.2564 130.317 45.9277 133.772 45.9277C136.559 45.9277 138.172 44.224 138.841 43.2335L136.767 41.8514C136.077 42.8647 135.131 43.5322 133.772 43.5322C132.413 43.5322 131.445 42.9105 130.823 41.6899L138.955 38.3282L138.679 37.6393ZM130.385 39.666C130.317 37.3163 132.206 36.12 133.566 36.12C134.625 36.12 135.523 36.6502 135.824 37.4092L130.385 39.666ZM123.774 45.5604H126.446V27.6929H123.774V45.5604ZM119.396 35.1295H119.304C118.705 34.4148 117.552 33.7702 116.102 33.7702C113.061 33.7702 110.274 36.4415 110.274 39.8733C110.274 43.2807 113.061 45.9291 116.102 45.9291C117.554 45.9291 118.705 45.2845 119.304 44.5484H119.396V45.4232C119.396 47.7486 118.152 48.9921 116.148 48.9921C114.512 48.9921 113.498 47.8186 113.084 46.8281L110.757 47.7958C111.425 49.4066 113.198 51.3875 116.148 51.3875C119.281 51.3875 121.931 49.5452 121.931 45.0544V34.1404H119.397L119.396 35.1295ZM116.333 43.5351C114.489 43.5351 112.946 41.9914 112.946 39.8733C112.946 37.7308 114.489 36.1657 116.333 36.1657C118.152 36.1657 119.58 37.7308 119.58 39.8733C119.58 41.9914 118.152 43.5351 116.333 43.5351ZM151.198 27.6929H144.804V45.5604H147.471V38.7913H151.196C154.153 38.7913 157.062 36.6517 157.062 33.2428C157.062 29.834 154.155 27.6929 151.198 27.6929ZM151.266 36.3043H147.471V30.1799H151.266C153.261 30.1799 154.394 31.8307 154.394 33.2428C154.394 34.6264 153.261 36.3043 151.266 36.3043ZM167.757 33.7388C165.825 33.7388 163.825 34.5892 162.997 36.4744L165.365 37.4621C165.871 36.4744 166.815 36.1514 167.803 36.1514C169.183 36.1514 170.586 36.979 170.608 38.4497V38.6341C170.125 38.3582 169.09 37.9452 167.826 37.9452C165.273 37.9452 162.673 39.3473 162.673 41.9672C162.673 44.3583 164.767 45.8977 167.112 45.8977C168.905 45.8977 169.895 45.093 170.516 44.1497H170.607V45.5289H173.184V38.6784C173.185 35.5082 170.814 33.7388 167.757 33.7388ZM167.434 43.5308C166.562 43.5308 165.342 43.0934 165.342 42.0129C165.342 40.6336 166.86 40.1048 168.172 40.1048C169.343 40.1048 169.896 40.3578 170.608 40.7022C170.401 42.3588 168.975 43.5308 167.434 43.5308ZM182.568 34.129L179.509 41.8757H179.417L176.243 34.129H173.368L178.129 44.9558L175.415 50.9788H178.198L185.535 34.129H182.568ZM158.535 45.5604H161.202V27.6929H158.535V45.5604Z" fill="white"/>
<defs>
<filter id="filter0_ii_2020_17021" x="20.5137" y="19.5898" width="34.959" height="39.0938" filterUnits="userSpaceOnUse" color-interpolation-filters="sRGB">
<feFlood flood-opacity="0" result="BackgroundImageFix"/>
<feBlend mode="normal" in="SourceGraphic" in2="BackgroundImageFix" result="shape"/>
<feColorMatrix in="SourceAlpha" type="matrix" values="0 0 0 0 0 0 0 0 0 0 0 0 0 0 0 0 0 0 127 0" result="hardAlpha"/>
<feOffset dy="-0.228"/>
<feComposite in2="hardAlpha" operator="arithmetic" k2="-1" k3="1"/>
<feColorMatrix type="matrix" values="0 0 0 0 0 0 0 0 0 0 0 0 0 0 0 0 0 0 0.12 0"/>
<feBlend mode="normal" in2="shape" result="effect1_innerShadow_2020_17021"/>
<feColorMatrix in="SourceAlpha" type="matrix" values="0 0 0 0 0 0 0 0 0 0 0 0 0 0 0 0 0 0 127 0" result="hardAlpha"/>
<feOffset dy="0.228"/>
<feComposite in2="hardAlpha" operator="arithmetic" k2="-1" k3="1"/>
<feColorMatrix type="matrix" values="0 0 0 0 1 0 0 0 0 1 0 0 0 0 1 0 0 0 0.25 0"/>
<feBlend mode="normal" in2="effect1_innerShadow_2020_17021" result="effect2_innerShadow_2020_17021"/>
</filter>
<filter id="filter1_i_2020_17021" x="21.2148" y="39.1367" width="25.2637" height="19.5469" filterUnits="userSpaceOnUse" color-interpolation-filters="sRGB">
<feFlood flood-opacity="0" result="BackgroundImageFix"/>
<feBlend mode="normal" in="SourceGraphic" in2="BackgroundImageFix" result="shape"/>
<feColorMatrix in="SourceAlpha" type="matrix" values="0 0 0 0 0 0 0 0 0 0 0 0 0 0 0 0 0 0 127 0" result="hardAlpha"/>
<feOffset dy="-0.228"/>
<feComposite in2="hardAlpha" operator="arithmetic" k2="-1" k3="1"/>
<feColorMatrix type="matrix" values="0 0 0 0 0 0 0 0 0 0 0 0 0 0 0 0 0 0 0.08 0"/>
<feBlend mode="normal" in2="shape" result="effect1_innerShadow_2020_17021"/>
</filter>
<linearGradient id="paint0_linear_2020_17021" x1="38.422" y1="21.9729" x2="12.9136" y2="47.3821" gradientUnits="userSpaceOnUse">
<stop stop-color="#00A0FF"/>
<stop offset="0.0066" stop-color="#00A1FF"/>
<stop offset="0.2601" stop-color="#00BEFF"/>
<stop offset="0.5122" stop-color="#00D2FF"/>
<stop offset="0.7604" stop-color="#00DFFF"/>
<stop offset="1" stop-color="#00E3FF"/>
</linearGradient>
<linearGradient id="paint1_linear_2020_17021" x1="56.6398" y1="39.1362" x2="20.0051" y2="39.1362" gradientUnits="userSpaceOnUse">
<stop stop-color="#FFE000"/>
<stop offset="0.4087" stop-color="#FFBD00"/>
<stop offset="0.7754" stop-color="#FFA500"/>
<stop offset="1" stop-color="#FF9C00"/>
</linearGradient>
<linearGradient id="paint2_linear_2020_17021" x1="43.0057" y1="42.6234" x2="8.41315" y2="77.0815" gradientUnits="userSpaceOnUse">
<stop stop-color="#FF3A44"/>
<stop offset="1" stop-color="#C31162"/>
</linearGradient>
<linearGradient id="paint3_linear_2020_17021" x1="16.4627" y1="9.00439" x2="31.9093" y2="24.3909" gradientUnits="userSpaceOnUse">
<stop stop-color="#32A071"/>
<stop offset="0.0685" stop-color="#2DA771"/>
<stop offset="0.4762" stop-color="#15CF74"/>
<stop offset="0.8009" stop-color="#06E775"/>
<stop offset="1" stop-color="#00F076"/>
</linearGradient>
</defs>
</svg>
