<svg width="67" height="74" viewBox="0 0 67 74" fill="none" xmlns="http://www.w3.org/2000/svg">
<g filter="url(#filter0_b_2020_16948)">
<path d="M0.890625 40.1612C0.890625 22.0302 15.6748 7.33203 33.8059 7.33203C51.9369 7.33203 66.7211 22.0302 66.7211 40.1612C66.7211 58.2923 51.9369 72.9904 33.8059 72.9904C15.6748 72.9904 0.890625 58.2923 0.890625 40.1612Z" fill="url(#paint0_radial_2020_16948)"/>
<path d="M1.30207 40.1612C1.30207 22.2588 15.9007 7.74347 33.8059 7.74347C51.7111 7.74347 66.3097 22.2588 66.3097 40.1612C66.3097 58.0636 51.7111 72.579 33.8059 72.579C15.9007 72.579 1.30207 58.0636 1.30207 40.1612Z" stroke="url(#paint1_radial_2020_16948)" stroke-width="0.822881"/>
<path d="M1.30207 40.1612C1.30207 22.2588 15.9007 7.74347 33.8059 7.74347C51.7111 7.74347 66.3097 22.2588 66.3097 40.1612C66.3097 58.0636 51.7111 72.579 33.8059 72.579C15.9007 72.579 1.30207 58.0636 1.30207 40.1612Z" stroke="url(#paint2_radial_2020_16948)" stroke-width="0.822881"/>
<path d="M1.30207 40.1612C1.30207 22.2588 15.9007 7.74347 33.8059 7.74347C51.7111 7.74347 66.3097 22.2588 66.3097 40.1612C66.3097 58.0636 51.7111 72.579 33.8059 72.579C15.9007 72.579 1.30207 58.0636 1.30207 40.1612Z" stroke="url(#paint3_radial_2020_16948)" stroke-width="0.822881"/>
</g>
<g filter="url(#filter1_f_2020_16948)">
<ellipse cx="33.5956" cy="25.0114" rx="20.8885" ry="13.4684" fill="url(#paint4_radial_2020_16948)" fill-opacity="0.2"/>
</g>
<path d="M50.5461 26.3998H16.4128C15.7131 26.3998 15.1328 25.8196 15.1328 25.1198C15.1328 24.4201 15.7131 23.8398 16.4128 23.8398H50.5461C51.2459 23.8398 51.8261 24.4201 51.8261 25.1198C51.8261 25.8196 51.2459 26.3998 50.5461 26.3998Z" fill="#AEAEB2"/>
<path d="M31.7728 36.6381H16.4128C15.7131 36.6381 15.1328 36.0579 15.1328 35.3581C15.1328 34.6584 15.7131 34.0781 16.4128 34.0781H31.7728C32.4725 34.0781 33.0528 34.6584 33.0528 35.3581C33.0528 36.0579 32.4725 36.6381 31.7728 36.6381Z" fill="#AEAEB2"/>
<path d="M26.6528 46.8803H16.4128C15.7131 46.8803 15.1328 46.3 15.1328 45.6003C15.1328 44.9006 15.7131 44.3203 16.4128 44.3203H26.6528C27.3525 44.3203 27.9328 44.9006 27.9328 45.6003C27.9328 46.3 27.3525 46.8803 26.6528 46.8803Z" fill="#AEAEB2"/>
<path d="M23.2395 57.1186H16.4128C15.7131 57.1186 15.1328 56.5383 15.1328 55.8386C15.1328 55.1389 15.7131 54.5586 16.4128 54.5586H23.2395C23.9392 54.5586 24.5195 55.1389 24.5195 55.8386C24.5195 56.5383 23.9392 57.1186 23.2395 57.1186Z" fill="#AEAEB2"/>
<path d="M50.3084 33.107C49.3014 32.339 47.919 32.1855 46.2977 32.6292L38.8737 34.643C36.8769 35.1892 35.6481 36.8105 35.6481 38.8585V43.2104V49.4911C34.9313 49.0815 34.095 48.8254 33.2076 48.8254C30.4598 48.8254 28.207 51.0612 28.207 53.826C28.207 56.5737 30.4428 58.8265 33.2076 58.8265C35.9724 58.8265 38.2081 56.5908 38.2081 53.826V44.1832L49.2673 41.1625V47.0164C48.5505 46.6068 47.7142 46.3507 46.8268 46.3507C44.079 46.3507 41.8262 48.5865 41.8262 51.3513C41.8262 54.099 44.062 56.3518 46.8268 56.3518C49.5916 56.3518 51.8273 54.1161 51.8273 51.3513V39.4899V36.8446C51.8273 35.1209 51.3153 33.8579 50.3084 33.107ZM33.2076 56.2665C31.8593 56.2665 30.767 55.1742 30.767 53.826C30.767 52.4777 31.8593 51.3854 33.2076 51.3854C34.5558 51.3854 35.6481 52.4777 35.6481 53.826C35.6481 55.1742 34.5558 56.2665 33.2076 56.2665ZM46.8268 53.7918C45.4785 53.7918 44.3862 52.6995 44.3862 51.3513C44.3862 50.003 45.4785 48.9107 46.8268 48.9107C48.175 48.9107 49.2673 50.003 49.2673 51.3513C49.2673 52.6995 48.175 53.7918 46.8268 53.7918Z" fill="#AEAEB2"/>
<defs>
<filter id="filter0_b_2020_16948" x="-3.22378" y="3.21762" width="74.0589" height="73.889" filterUnits="userSpaceOnUse" color-interpolation-filters="sRGB">
<feFlood flood-opacity="0" result="BackgroundImageFix"/>
<feGaussianBlur in="BackgroundImageFix" stdDeviation="2.0572"/>
<feComposite in2="SourceAlpha" operator="in" result="effect1_backgroundBlur_2020_16948"/>
<feBlend mode="normal" in="SourceGraphic" in2="effect1_backgroundBlur_2020_16948" result="shape"/>
</filter>
<filter id="filter1_f_2020_16948" x="2.04699" y="0.882924" width="63.0974" height="48.2576" filterUnits="userSpaceOnUse" color-interpolation-filters="sRGB">
<feFlood flood-opacity="0" result="BackgroundImageFix"/>
<feBlend mode="normal" in="SourceGraphic" in2="BackgroundImageFix" result="shape"/>
<feGaussianBlur stdDeviation="5.33002" result="effect1_foregroundBlur_2020_16948"/>
</filter>
<radialGradient id="paint0_radial_2020_16948" cx="0" cy="0" r="1" gradientUnits="userSpaceOnUse" gradientTransform="translate(6.39738 7.33203) rotate(47.9449) scale(98.2773 71.4056)">
<stop stop-color="white" stop-opacity="0.36"/>
<stop offset="1" stop-color="white" stop-opacity="0"/>
</radialGradient>
<radialGradient id="paint1_radial_2020_16948" cx="0" cy="0" r="1" gradientUnits="userSpaceOnUse" gradientTransform="translate(-34.1613 14.049) rotate(35.0407) scale(75.8295 44.755)">
<stop stop-color="white"/>
<stop offset="1" stop-color="white" stop-opacity="0.06"/>
</radialGradient>
<radialGradient id="paint2_radial_2020_16948" cx="0" cy="0" r="1" gradientUnits="userSpaceOnUse" gradientTransform="translate(85.9938 51.2745) rotate(161.385) scale(55.0037 37.1765)">
<stop stop-color="#8C8C8C"/>
<stop offset="1" stop-color="#DADADA" stop-opacity="0"/>
</radialGradient>
<radialGradient id="paint3_radial_2020_16948" cx="0" cy="0" r="1" gradientUnits="userSpaceOnUse" gradientTransform="translate(34.5226 -7.67397) rotate(47.2149) scale(36.7359 26.4045)">
<stop/>
<stop offset="1" stop-color="white" stop-opacity="0"/>
</radialGradient>
<radialGradient id="paint4_radial_2020_16948" cx="0" cy="0" r="1" gradientUnits="userSpaceOnUse" gradientTransform="translate(33.5956 11.543) rotate(90) scale(19.9603 30.9609)">
<stop stop-color="white"/>
<stop offset="1" stop-color="white" stop-opacity="0"/>
</radialGradient>
</defs>
</svg>
