<svg width="67" height="74" viewBox="0 0 67 74" fill="none" xmlns="http://www.w3.org/2000/svg">
<g filter="url(#filter0_b_2020_16976)">
<path d="M0.433594 40.1612C0.433594 22.0302 15.2178 7.33203 33.3488 7.33203C51.4799 7.33203 66.2641 22.0302 66.2641 40.1612C66.2641 58.2923 51.4799 72.9904 33.3488 72.9904C15.2178 72.9904 0.433594 58.2923 0.433594 40.1612Z" fill="url(#paint0_radial_2020_16976)"/>
<path d="M0.845034 40.1612C0.845034 22.2588 15.4436 7.74347 33.3488 7.74347C51.2541 7.74347 65.8527 22.2588 65.8527 40.1612C65.8527 58.0636 51.2541 72.579 33.3488 72.579C15.4436 72.579 0.845034 58.0636 0.845034 40.1612Z" stroke="url(#paint1_radial_2020_16976)" stroke-width="0.822881"/>
<path d="M0.845034 40.1612C0.845034 22.2588 15.4436 7.74347 33.3488 7.74347C51.2541 7.74347 65.8527 22.2588 65.8527 40.1612C65.8527 58.0636 51.2541 72.579 33.3488 72.579C15.4436 72.579 0.845034 58.0636 0.845034 40.1612Z" stroke="url(#paint2_radial_2020_16976)" stroke-width="0.822881"/>
<path d="M0.845034 40.1612C0.845034 22.2588 15.4436 7.74347 33.3488 7.74347C51.2541 7.74347 65.8527 22.2588 65.8527 40.1612C65.8527 58.0636 51.2541 72.579 33.3488 72.579C15.4436 72.579 0.845034 58.0636 0.845034 40.1612Z" stroke="url(#paint3_radial_2020_16976)" stroke-width="0.822881"/>
</g>
<g filter="url(#filter1_f_2020_16976)">
<ellipse cx="33.1385" cy="25.0114" rx="20.8885" ry="13.4684" fill="url(#paint4_radial_2020_16976)" fill-opacity="0.2"/>
</g>
<path opacity="0.4" d="M33.4805 31.0445V58.4024C33.7706 58.4024 34.0778 58.3511 34.3167 58.2146L34.3851 58.1805C37.6619 56.3885 43.3791 54.5112 47.0826 54.0162L47.5776 53.9479C49.216 53.7431 50.5471 52.2071 50.5471 50.5687V29.9522C50.5471 27.9212 48.8917 26.3853 46.8608 26.5559C43.2768 26.8461 37.8496 28.6552 34.8117 30.5496L34.3851 30.8055C34.1291 30.9591 33.8047 31.0445 33.4805 31.0445Z" fill="#AEAEB2"/>
<path d="M16.4141 29.9718V50.5713C16.4141 52.2097 17.7452 53.7457 19.3836 53.9505L19.9469 54.0188C23.6674 54.5137 29.4018 56.4081 32.6786 58.2171C32.9005 58.3537 33.1735 58.405 33.4807 58.405V31.047C33.1565 31.047 32.8321 30.9617 32.5761 30.8081L32.286 30.6204C29.2482 28.7089 23.8039 26.8828 20.2199 26.5756H20.1175C18.0866 26.4049 16.4141 27.9238 16.4141 29.9718Z" fill="#AEAEB2"/>
<path d="M45.4263 26.7461V34.0677C45.4263 34.7503 44.6753 35.1599 44.095 34.7844L42.0129 33.402L39.9309 34.7844C39.3677 35.1599 38.5996 34.7503 38.5996 34.0677V28.6916C40.8353 27.8041 43.3271 27.0874 45.4263 26.7461Z" fill="#292D32"/>
<defs>
<filter id="filter0_b_2020_16976" x="-3.68081" y="3.21762" width="74.0589" height="73.889" filterUnits="userSpaceOnUse" color-interpolation-filters="sRGB">
<feFlood flood-opacity="0" result="BackgroundImageFix"/>
<feGaussianBlur in="BackgroundImageFix" stdDeviation="2.0572"/>
<feComposite in2="SourceAlpha" operator="in" result="effect1_backgroundBlur_2020_16976"/>
<feBlend mode="normal" in="SourceGraphic" in2="effect1_backgroundBlur_2020_16976" result="shape"/>
</filter>
<filter id="filter1_f_2020_16976" x="1.58996" y="0.882924" width="63.0974" height="48.2576" filterUnits="userSpaceOnUse" color-interpolation-filters="sRGB">
<feFlood flood-opacity="0" result="BackgroundImageFix"/>
<feBlend mode="normal" in="SourceGraphic" in2="BackgroundImageFix" result="shape"/>
<feGaussianBlur stdDeviation="5.33002" result="effect1_foregroundBlur_2020_16976"/>
</filter>
<radialGradient id="paint0_radial_2020_16976" cx="0" cy="0" r="1" gradientUnits="userSpaceOnUse" gradientTransform="translate(5.94035 7.33203) rotate(47.9449) scale(98.2773 71.4056)">
<stop stop-color="white" stop-opacity="0.36"/>
<stop offset="1" stop-color="white" stop-opacity="0"/>
</radialGradient>
<radialGradient id="paint1_radial_2020_16976" cx="0" cy="0" r="1" gradientUnits="userSpaceOnUse" gradientTransform="translate(-34.6183 14.049) rotate(35.0407) scale(75.8295 44.755)">
<stop stop-color="white"/>
<stop offset="1" stop-color="white" stop-opacity="0.06"/>
</radialGradient>
<radialGradient id="paint2_radial_2020_16976" cx="0" cy="0" r="1" gradientUnits="userSpaceOnUse" gradientTransform="translate(85.5368 51.2745) rotate(161.385) scale(55.0037 37.1765)">
<stop stop-color="#969696"/>
<stop offset="1" stop-color="#DADADA" stop-opacity="0"/>
</radialGradient>
<radialGradient id="paint3_radial_2020_16976" cx="0" cy="0" r="1" gradientUnits="userSpaceOnUse" gradientTransform="translate(34.0656 -7.67397) rotate(47.2149) scale(36.7359 26.4045)">
<stop/>
<stop offset="1" stop-color="white" stop-opacity="0"/>
</radialGradient>
<radialGradient id="paint4_radial_2020_16976" cx="0" cy="0" r="1" gradientUnits="userSpaceOnUse" gradientTransform="translate(33.1385 11.543) rotate(90) scale(19.9603 30.9609)">
<stop stop-color="white"/>
<stop offset="1" stop-color="white" stop-opacity="0"/>
</radialGradient>
</defs>
</svg>
