<svg width="67" height="74" viewBox="0 0 67 74" fill="none" xmlns="http://www.w3.org/2000/svg">
<g filter="url(#filter0_b_2020_16962)">
<path d="M0.585938 40.1612C0.585938 22.0302 15.3701 7.33203 33.5012 7.33203C51.6322 7.33203 66.4164 22.0302 66.4164 40.1612C66.4164 58.2923 51.6322 72.9904 33.5012 72.9904C15.3701 72.9904 0.585938 58.2923 0.585938 40.1612Z" fill="url(#paint0_radial_2020_16962)"/>
<path d="M0.997378 40.1612C0.997378 22.2588 15.596 7.74347 33.5012 7.74347C51.4064 7.74347 66.005 22.2588 66.005 40.1612C66.005 58.0636 51.4064 72.579 33.5012 72.579C15.596 72.579 0.997378 58.0636 0.997378 40.1612Z" stroke="url(#paint1_radial_2020_16962)" stroke-width="0.822881"/>
<path d="M0.997378 40.1612C0.997378 22.2588 15.596 7.74347 33.5012 7.74347C51.4064 7.74347 66.005 22.2588 66.005 40.1612C66.005 58.0636 51.4064 72.579 33.5012 72.579C15.596 72.579 0.997378 58.0636 0.997378 40.1612Z" stroke="url(#paint2_radial_2020_16962)" stroke-width="0.822881"/>
<path d="M0.997378 40.1612C0.997378 22.2588 15.596 7.74347 33.5012 7.74347C51.4064 7.74347 66.005 22.2588 66.005 40.1612C66.005 58.0636 51.4064 72.579 33.5012 72.579C15.596 72.579 0.997378 58.0636 0.997378 40.1612Z" stroke="url(#paint3_radial_2020_16962)" stroke-width="0.822881"/>
</g>
<g filter="url(#filter1_f_2020_16962)">
<ellipse cx="33.2909" cy="25.0114" rx="20.8885" ry="13.4684" fill="url(#paint4_radial_2020_16962)" fill-opacity="0.2"/>
</g>
<path d="M45.8725 24.8981L38.329 22.3893C36.7589 21.8602 35.1717 22.0479 34.0112 22.9013C32.8336 23.7546 32.168 25.1882 32.168 26.8437V33.2778L43.9098 37.1861C44.4901 37.3909 45.0874 37.4762 45.6506 37.4762C46.6064 37.4762 47.4938 37.2031 48.2277 36.6741C49.4053 35.8207 50.0709 34.3871 50.0709 32.7317V30.7178C50.0709 28.2773 48.1936 25.6661 45.8725 24.8981Z" fill="#AEAEB2"/>
<path d="M34.7114 34.1151V50.7209C34.7114 55.1924 31.0762 58.8276 26.6047 58.8276C22.1332 58.8276 18.498 55.1924 18.498 50.7209C18.498 46.2495 22.1332 42.6143 26.6047 42.6143C28.7551 42.6143 30.7007 43.4676 32.1514 44.8329V33.2617L34.7114 34.1151Z" fill="#AEAEB2"/>
<defs>
<filter id="filter0_b_2020_16962" x="-3.52847" y="3.21762" width="74.0589" height="73.889" filterUnits="userSpaceOnUse" color-interpolation-filters="sRGB">
<feFlood flood-opacity="0" result="BackgroundImageFix"/>
<feGaussianBlur in="BackgroundImageFix" stdDeviation="2.0572"/>
<feComposite in2="SourceAlpha" operator="in" result="effect1_backgroundBlur_2020_16962"/>
<feBlend mode="normal" in="SourceGraphic" in2="effect1_backgroundBlur_2020_16962" result="shape"/>
</filter>
<filter id="filter1_f_2020_16962" x="1.7423" y="0.882924" width="63.0974" height="48.2576" filterUnits="userSpaceOnUse" color-interpolation-filters="sRGB">
<feFlood flood-opacity="0" result="BackgroundImageFix"/>
<feBlend mode="normal" in="SourceGraphic" in2="BackgroundImageFix" result="shape"/>
<feGaussianBlur stdDeviation="5.33002" result="effect1_foregroundBlur_2020_16962"/>
</filter>
<radialGradient id="paint0_radial_2020_16962" cx="0" cy="0" r="1" gradientUnits="userSpaceOnUse" gradientTransform="translate(6.09269 7.33203) rotate(47.9449) scale(98.2773 71.4056)">
<stop stop-color="white" stop-opacity="0.36"/>
<stop offset="1" stop-color="white" stop-opacity="0"/>
</radialGradient>
<radialGradient id="paint1_radial_2020_16962" cx="0" cy="0" r="1" gradientUnits="userSpaceOnUse" gradientTransform="translate(-34.466 14.049) rotate(35.0407) scale(75.8295 44.755)">
<stop stop-color="white"/>
<stop offset="1" stop-color="white" stop-opacity="0.06"/>
</radialGradient>
<radialGradient id="paint2_radial_2020_16962" cx="0" cy="0" r="1" gradientUnits="userSpaceOnUse" gradientTransform="translate(85.6891 51.2745) rotate(161.385) scale(55.0037 37.1765)">
<stop stop-color="#929292"/>
<stop offset="1" stop-color="#DADADA" stop-opacity="0"/>
</radialGradient>
<radialGradient id="paint3_radial_2020_16962" cx="0" cy="0" r="1" gradientUnits="userSpaceOnUse" gradientTransform="translate(34.2179 -7.67397) rotate(47.2149) scale(36.7359 26.4045)">
<stop/>
<stop offset="1" stop-color="white" stop-opacity="0"/>
</radialGradient>
<radialGradient id="paint4_radial_2020_16962" cx="0" cy="0" r="1" gradientUnits="userSpaceOnUse" gradientTransform="translate(33.2909 11.543) rotate(90) scale(19.9603 30.9609)">
<stop stop-color="white"/>
<stop offset="1" stop-color="white" stop-opacity="0"/>
</radialGradient>
</defs>
</svg>
